Genre:Comedy
Language:English
IMDb:http://www.imdb.com/title/tt1361313/
Source:LiMiTED.720p.BluRay.x264-BRMP

General
Complete name :The.Extra.Man.2010.LiMiTED.720p.BRRip.H264.Feel-Free
Format : MPEG-4
Format profile : Base Media
Codec ID : mp42
File size : 1.57 GiB
Duration : 1h 47mn
Overall bit rate : 2 087 Kbps
Video #1
Codec ID : avc1
Codec ID/Info : Advanced Video Coding
Duration : 1h 47mn
Bit rate mode : Variable
Bit rate : 1 606 Kbps
Width : 1 280 pixels
Height : 544 pixels
Display aspect ratio : 2.35:1
Frame rate mode : Constant
Frame rate : 23.976 fps
Resolution : 24 bits
Colorimetry : 4:2:0
Scan type : Progressive
Bits/(Pixel*Frame) : 0.096
Stream size : 1.21 GiB (77%)
Audio #2
ID : 2
Format : AAC
Format/Info : Advanced Audio Codec
Format version : Version 4
Format profile : LC
Format settings, SBR : No
Codec ID : 40
Duration : 1h 47mn
Bit rate mode : Constant
Bit rate : 477 Kbps
Nominal bit rate : 480 Kbps
Channel(s) : 6 channels
Channel positions : Front: L C R, Rear: L R, LFE
Sampling rate : 48.0 KHz
Resolution : 16 bits
Stream size : 367 MiB (23%)

Plot:
A man who escorts wealthy widows in New York's Upper East Side takes a young aspiring playwright under his wing


screens
 
http://rapidhdd.com/images/855441vlcsnap-2010-11-19-07h21m32s198.png 
http://www.rapidhdd.com/images/543204vlcsnap-2010-11-19-07h21m36s237.png 
http://www.rapidhdd.com/images/725823vlcsnap-2010-11-19-07h22m39s86.png 
http://www.rapidhdd.com/images/251769vlcsnap-2010-11-19-07h22m21s163.png 
http://www.rapidhdd.com/images/265705vlcsnap-2010-11-19-07h23m21s246.png